<svg xmlns="http://www.w3.org/2000/svg" width="16.226" height="127.244" viewBox="0 0 16.226 127.244">
  <path id="Union_3" data-name="Union 3" d="M8.114,127.245h-1a1,1,0,0,1-.632-.224,6,6,0,0,1-.369-11.434V94.244a1,1,0,0,1,1-1h2a1,1,0,0,1,1,1v21.341a6,6,0,0,1-.37,11.435.993.993,0,0,1-.63.224Zm-1-94a1,1,0,0,1-1-1V15.565L2.729,17.539a1.809,1.809,0,0,1-2.565-2.3L6.46,1.075a1.809,1.809,0,0,1,3.307,0l6.3,14.167a1.809,1.809,0,0,1-2.565,2.3l-3.384-1.975V32.245a1,1,0,0,1-1,1Z" transform="translate(0 0)" fill="#fff"/>
</svg>
